# xmcd CD database file
#
# Track frame offsets:
#	150
#	13495
#	35133
#	44950
#	60038
#	69600
#	85240
#	101220
#	113298
#	125985
#	144345
#	154995
#
# Disc length: 2269 seconds
#
# Revision: 0
# Processed by: cddbd v1.5PL3 Copyright (c) Steve Scherf et al.
# Submitted via: CDex 1.51
#
DISCID=af08db0c
DTITLE=Helen Merrill - THE NEARNESS OF YOU
DYEAR=1996
DGENRE=Jazz
TTITLE0=Bye,Bye, Blackbird
TTITLE1=When The Sun Comes Out
TTITLE2=I Remember You
TTITLE3=Softly As In A Morning Sunrise
TTITLE4=Dearly Beloved
TTITLE5=Summertime
TTITLE6=All Of You
TTITLE7=I See Your Face Before Me
TTITLE8=Let Me Love You
TTITLE9=The Nearness Of You
TTITLE10=This Time The Dream's On Me
TTITLE11=Just Imagine
EXTD=YEAR: 1996
EXTT0=
EXTT1=
EXTT2=
EXTT3=
EXTT4=
EXTT5=
EXTT6=
EXTT7=
EXTT8=
EXTT9=
EXTT10=
EXTT11=
PLAYORDER=
